<?xml version="1.0" standalone="no"?>
<!DOCTYPE svg PUBLIC "-//W3C//DTD SVG 20010904//EN"
 "http://www.w3.org/TR/2001/REC-SVG-20010904/DTD/svg10.dtd">
<svg version="1.0" xmlns="http://www.w3.org/2000/svg"
 width="700.000000pt" height="700.000000pt" viewBox="0 0 700.000000 700.000000"
 preserveAspectRatio="xMidYMid meet">
<metadata>
Created by potrace 1.14, written by Peter Selinger 2001-2017
</metadata>
<g transform="translate(0.000000,700.000000) scale(0.100000,-0.100000)"
fill="#000000" stroke="none">
<path d="M2457 6702 c-60 -163 -113 -306 -118 -317 -4 -11 -40 -108 -79 -215
-210 -574 -273 -748 -286 -777 -8 -17 -14 -36 -14 -42 0 -6 -4 -19 -10 -29 -5
-9 -21 -51 -36 -92 -33 -93 -52 -147 -194 -530 -62 -168 -128 -348 -146 -400
-19 -52 -37 -102 -41 -110 -3 -8 -7 -19 -9 -25 -2 -5 -26 -73 -55 -150 -49
-132 -69 -188 -140 -380 -17 -44 -44 -118 -60 -165 -16 -47 -34 -94 -39 -105
-5 -11 -36 -96 -70 -190 -34 -93 -65 -179 -70 -190 -5 -11 -50 -130 -99 -265
-49 -135 -124 -339 -166 -455 -43 -115 -86 -232 -95 -260 -15 -41 -105 -289
-257 -700 -14 -38 -29 -79 -34 -90 -7 -17 -163 -443 -311 -850 -22 -60 -44
-119 -49 -130 -15 -34 -79 -217 -79 -226 0 -5 404 -9 939 -9 l938 0 62 203
c35 111 80 258 101 327 21 69 59 193 85 275 26 83 55 177 65 210 10 33 38 123
62 200 l43 140 1199 0 c1055 0 1200 -2 1207 -15 7 -13 138 -428 143 -455 1 -5
19 -64 40 -130 69 -220 124 -399 166 -535 23 -74 48 -153 55 -175 l13 -40 941
-3 c574 -1 941 2 941 7 0 5 -43 126 -95 268 -53 142 -113 305 -135 363 -21 58
-61 166 -88 240 -28 74 -82 223 -122 330 -39 107 -82 222 -95 255 -12 33 -41
110 -63 170 -22 61 -79 216 -126 345 -120 325 -127 342 -136 365 -4 11 -13 36
-20 55 -7 19 -16 44 -20 55 -5 11 -33 88 -63 170 -31 83 -91 247 -135 365 -44
118 -105 285 -137 370 -31 85 -60 164 -65 175 -4 11 -36 97 -70 190 -34 94
-76 206 -92 250 -41 108 -39 104 -268 725 -111 300 -248 673 -307 830 -58 157
-121 328 -140 380 -19 52 -50 136 -68 185 -47 124 -191 514 -268 725 l-64 175
-929 2 -929 3 -108 -298z m1149 -1817 c78 -253 135 -439 174 -560 31 -100 48
-153 214 -695 64 -206 122 -395 131 -420 17 -51 65 -206 100 -325 14 -44 31
-101 39 -126 l14 -46 -779 0 c-571 0 -779 3 -779 11 0 6 12 47 26 91 14 44 27
87 29 95 2 8 42 139 90 290 47 151 88 283 90 292 4 18 62 207 117 378 16 52
36 115 43 140 20 71 120 392 202 655 41 132 79 254 83 270 5 17 28 93 51 169
l44 140 23 -75 c13 -41 52 -168 88 -284z"/>
</g>
</svg>
